:SAMPLES-PER-SECOND 30
:FULLY-SPECIFIED
:DEGREES
153
root  -2.43757 40.9315 0.488624 177.862 -76.2643 -177.803
RightUpLeg  1.40205 -0.397647 -0.675395
RightLeg  -0.604302 -7.63849 0.0930707
RightFoot  -0.0851567 -0.326974 3.31018
RightToes  -3.13006e-008 1.75238e-005 3.56266e-009
Spine  -0.702852 -10.5845 -12.206
Spine1  7.0037 -13.0274 10.247
HEad  -10.1494 1.1727 -14.8692
LeftShoulder1  2.50522 -5.28682 -22.2033
LeftArm  18.8033 -33.9952 -63.5367
LeftForeArm  62.525 -78.4004 -95.8303
LeftHand  -0.130083 -0.0671978 2.77937
RightShoulder  1.30993 1.28186 21.1073
RightArm  -8.44584 -35.6834 39.3729
RightForeArm  121.397 75.9795 131.677
RightHand  -0.897114 7.43562 -8.4487
LeftUpLeg  4.37952 2.59708 3.17503
LeftLeg  -1.42752 24.5031 -1.60239
LeftFoot  -1.41861 0.333882 -3.74822
LeftToes  4.76866e-008 1.46233e-008 1.30548e-009
154
root  -2.4356 40.9318 0.401829 178.499 -76.1838 -178.459
RightUpLeg  1.34532 -0.363845 -0.658036
RightLeg  -0.444662 -7.55713 -0.00023436
RightFoot  -0.215064 -0.305136 3.11609
RightToes  -3.13006e-008 1.75238e-005 3.56266e-009
Spine  -1.34696 -9.76186 -11.0798
Spine1  7.76673 -11.9963 9.22945
HEad  -14.2725 0.467756 -13.2552
LeftShoulder1  2.38044 -4.40226 -23.8711
LeftArm  9.02666 -24.7867 -53.7446
LeftForeArm  87.1027 -75.9343 -124.467
LeftHand  -0.183768 0.430607 4.27911
RightShoulder  1.17022 0.853399 20.5787
RightArm  -7.24858 -34.618 40.3342
RightForeArm  123.786 76.145 131.59
RightHand  -0.805305 7.46415 -7.60478
LeftUpLeg  4.67083 2.40386 3.03676
LeftLeg  -1.99331 24.8254 -1.68014
LeftFoot  -1.20634 0.351252 -3.87936
LeftToes  4.76866e-008 1.46233e-008 1.30548e-009
155
root  -2.44188 40.9316 0.316286 178.762 -75.7316 -178.713
RightUpLeg  1.26599 -0.255499 -0.561972
RightLeg  -0.321514 -7.2445 -0.0536705
RightFoot  -0.337435 -0.298647 3.07501
RightToes  -3.13006e-008 1.75238e-005 3.56266e-009
Spine  -1.71614 -8.8229 -8.87377
Spine1  7.9653 -10.5327 6.85421
HEad  -18.6706 -0.758549 -11.0651
LeftShoulder1  2.10941 -3.52426 -23.7724
LeftArm  -0.910184 -14.5443 -47.0931
LeftForeArm  98.684 -71.5702 -140.906
LeftHand  -0.162928 0.652088 3.94865
RightShoulder  1.06099 0.472717 20.4026
RightArm  -5.80397 -34.3218 41.0304
RightForeArm  124.694 75.7019 133.395
RightHand  -0.979523 7.4739 -9.16985
LeftUpLeg  4.98718 2.3406 3.01969
LeftLeg  -2.48585 25.3545 -1.77702
LeftFoot  -1.07157 0.378114 -4.13604
LeftToes  4.76866e-008 1.46233e-008 1.30548e-009
156
root  -2.47056 40.9304 0.229401 179.124 -75.2985 -178.901
RightUpLeg  1.06285 -0.240701 -0.508091
RightLeg  -0.252494 -6.79816 -0.0015009
RightFoot  -0.440563 -0.294665 3.05492
RightToes  -3.13006e-008 1.75238e-005 3.56266e-009
Spine  -1.70794 -7.9764 -6.85708
Spine1  7.35107 -9.2106 4.85851
HEad  -22.313 -1.55032 -9.15559
LeftShoulder1  1.92162 -3.00976 -23.2416
LeftArm  -10.6006 -3.78985 -41.7915
LeftForeArm  102.152 -67.3103 -149.257
LeftHand  -0.181168 0.148482 4.02205
RightShoulder  1.03103 0.406499 20.0562
RightArm  -4.77561 -34.6902 41.5792
RightForeArm  127.44 75.5373 134.534
RightHand  -0.921777 7.60397 -8.56836
LeftUpLeg  5.08069 2.288 3.0284
LeftLeg  -2.83666 25.8738 -1.86291
LeftFoot  -0.931048 0.405986 -4.39496
LeftToes  4.76866e-008 1.46233e-008 1.30548e-009
157
root  -2.50415 40.9279 0.148644 179.684 -74.9144 -179.183
RightUpLeg  0.761354 -0.235096 -0.493364
RightLeg  -0.164708 -6.46772 0.0438797
RightFoot  -0.518375 -0.273377 2.84694
RightToes  -3.13006e-008 1.75238e-005 3.56266e-009
Spine  -1.0986 -7.08916 -5.74138
Spine1  5.94366 -8.11783 4.16828
HEad  -25.2418 -2.39869 -8.22548
LeftShoulder1  1.71017 -2.37196 -22.7972
LeftArm  -19.476 6.40588 -38.1245
LeftForeArm  104.374 -64.4724 -153.124
LeftHand  -0.149447 0.403779 3.46156
RightShoulder  0.971248 0.241614 19.6026
RightArm  -3.51402 -35.1976 41.3694
RightForeArm  129.389 75.3251 135.629
RightHand  -0.8015 7.72425 -7.4369
LeftUpLeg  5.0728 2.16671 2.97969
LeftLeg  -3.232 26.3722 -1.9533
LeftFoot  -0.770714 0.421594 -4.50572
LeftToes  4.76866e-008 1.46233e-008 1.30548e-009
158
root  -2.54386 40.9249 0.0670808 -179.927 -74.632 -179.235
RightUpLeg  0.448505 -0.109513 -0.380976
RightLeg  -0.144598 -6.34678 0.038895
RightFoot  -0.576487 -0.256815 2.68272
RightToes  -3.13006e-008 1.75238e-005 3.56266e-009
Spine  -0.0686124 -6.39335 -4.84894
Spine1  3.94175 -7.2312 3.55496
HEad  -26.6847 -2.71021 -7.20614
LeftShoulder1  1.38946 -1.45557 -21.6497
LeftArm  -27.1862 16.5736 -35.9035
LeftForeArm  107.488 -62.4223 -155.535
LeftHand  -0.171872 0.00802408 3.74483
RightShoulder  1.03402 0.501653 19.4594
RightArm  -2.48845 -35.9114 40.8858
RightForeArm  129.589 75.1949 136.078
RightHand  -0.717363 7.82607 -6.64676
LeftUpLeg  4.89541 2.20608 3.07454
LeftLeg  -3.35788 26.6094 -2.04863
LeftFoot  -0.752631 0.427637 -4.57889
LeftToes  4.76866e-008 1.46233e-008 1.30548e-009
159
root  -2.63124 40.9271 -0.0119321 179.82 -74.907 -178.708
RightUpLeg  0.560698 -0.160663 -0.250318
RightLeg  -0.527072 -6.59444 0.292026
RightFoot  -0.577183 -0.248544 2.59445
RightToes  -3.13006e-008 1.75238e-005 3.56266e-009
Spine  0.202804 -5.80908 -4.35338
Spine1  3.18574 -6.599 3.46136
HEad  -27.954 -2.83073 -5.46754
LeftShoulder1  1.14439 -0.705113 -20.7788
LeftArm  -34.398 25.7772 -34.9798
LeftForeArm  109.437 -60.913 -157.072
LeftHand  -0.138064 -0.245332 2.89413
RightShoulder  0.983992 0.315991 19.4086
RightArm  -1.44704 -36.2934 40.3235
RightForeArm  128.927 75.2137 135.885
RightHand  -0.944526 7.49571 -8.84251
LeftUpLeg  4.74471 2.29176 3.3288
LeftLeg  -3.3283 26.2775 -1.99549
LeftFoot  -0.842936 0.447502 -4.87833
LeftToes  4.76866e-008 1.46233e-008 1.30548e-009
160
root  -2.70113 40.9214 -0.0814608 179.794 -74.7754 -178.389
RightUpLeg  0.414307 0.0400983 -0.041377
RightLeg  -0.597308 -6.67268 0.255652
RightFoot  -0.620277 -0.235804 2.47228
RightToes  -3.13006e-008 1.75238e-005 3.56266e-009
Spine  -0.14069 -5.0774 -3.90497
Spine1  3.41425 -5.7763 3.07083
HEad  -29.2896 -3.9083 -4.08686
LeftShoulder1  0.930881 0.0188924 -20.2141
LeftArm  -40.9725 33.5896 -35.0632
LeftForeArm  110.914 -59.5617 -158.311
LeftHand  -0.118073 -0.365307 2.44003
RightShoulder  1.03207 0.436578 19.8724
RightArm  -1.60886 -36.6633 40.1166
RightForeArm  127.708 75.3053 135.347
RightHand  -0.952419 7.30317 -9.03773
LeftUpLeg  4.59647 2.34117 3.47289
LeftLeg  -3.34668 26.3071 -1.97603
LeftFoot  -0.838841 0.447972 -4.87494
LeftToes  4.76866e-008 1.46233e-008 1.30548e-009
161
root  -2.76958 40.9201 -0.154096 179.707 -75.03 -178.177
RightUpLeg  0.46457 0.106358 0.0964376
RightLeg  -0.63408 -6.9338 0.274614
RightFoot  -0.70481 -0.222183 2.3592
RightToes  -3.13006e-008 1.75238e-005 3.56266e-009
Spine  0.0105054 -4.15962 -4.18248
Spine1  3.14269 -4.91253 3.56078
HEad  -30.2933 -5.2703 -3.28147
LeftShoulder1  0.660995 0.933228 -19.1922
LeftArm  -46.9646 39.8953 -37.6241
LeftForeArm  111.545 -58.4422 -159.23
LeftHand  -0.114296 -0.451694 2.33892
RightShoulder  1.0384 0.436905 20.0413
RightArm  -2.67976 -37.7847 40.0829
RightForeArm  127.578 75.4495 134.851
RightHand  -0.837955 7.71099 -7.76493
LeftUpLeg  4.6039 2.36681 3.60881
LeftLeg  -3.42955 26.038 -1.94963
LeftFoot  -0.816123 0.457576 -5.01379
LeftToes  4.76866e-008 1.46233e-008 1.30548e-009
162
root  -2.84513 40.9148 -0.204673 179.165 -75.5489 -177.7
RightUpLeg  0.830816 0.106462 0.239346
RightLeg  -0.831218 -7.34506 0.371742
RightFoot  -0.796589 -0.206261 2.174
RightToes  -3.13006e-008 1.75238e-005 3.56266e-009
Spine  0.217998 -3.12131 -4.17741
Spine1  2.88636 -3.88253 3.76311
HEad  -30.3168 -6.75893 -2.35005
LeftShoulder1  0.486583 1.57943 -18.6862
LeftArm  -52.2152 44.5877 -40.9521
LeftForeArm  112.544 -57.5972 -159.905
LeftHand  -0.0754992 -0.603334 1.53519
RightShoulder  0.939849 0.0883045 19.858
RightArm  -4.18536 -39.2176 41.2102
RightForeArm  127.704 75.6372 134.257
RightHand  -0.818358 7.80035 -7.54634
LeftUpLeg  4.70107 2.43405 3.79127
LeftLeg  -3.28899 25.4409 -1.79213
LeftFoot  -0.932347 0.464655 -5.11327
LeftToes  4.76866e-008 1.46233e-008 1.30548e-009
